<svg id="Filled" height="512" viewBox="0 0 512 512" width="512" xmlns="http://www.w3.org/2000/svg"><path d="m72 96h368a16 16 0 0 1 16 16v240a0 0 0 0 1 0 0h-400a0 0 0 0 1 0 0v-240a16 16 0 0 1 16-16z" fill="#e9eef2"/><path d="m88 128h336v224h-336z" fill="#67c5e0"/><path d="m216 176h128v96h-128z" fill="#d0d2d4"/><path d="m216 176h128v32h-128z" fill="#d13330"/><path d="m248 240h128v64h-128z" fill="#e9eef2"/><path d="m248 208h128v32h-128z" fill="#eb423f"/><path d="m24 352h464a0 0 0 0 1 0 0v16a32 32 0 0 1 -32 32h-400a32 32 0 0 1 -32-32v-16a0 0 0 0 1 0 0z" fill="#d0d2d4"/><path d="m128 184h16v16h-16z"/><path d="m128 216h16v16h-16z"/><path d="m128 248h16v16h-16z"/><path d="m128 280h16v16h-16z"/><path d="m160 184h16v16h-16z"/><path d="m160 216h16v16h-16z"/><path d="m160 248h16v16h-16z"/><path d="m160 280h16v16h-16z"/><path d="m488 344h-24v-232a24.028 24.028 0 0 0 -24-24h-368a24.027 24.027 0 0 0 -24 24v232h-24a8 8 0 0 0 -8 8v16a40.045 40.045 0 0 0 40 40h400a40.045 40.045 0 0 0 40-40v-16a8 8 0 0 0 -8-8zm-424-232a8.009 8.009 0 0 1 8-8h368a8.009 8.009 0 0 1 8 8v232h-16v-216a8 8 0 0 0 -8-8h-336a8 8 0 0 0 -8 8v216h-16zm352 24v208h-320v-208zm64 232a24.028 24.028 0 0 1 -24 24h-400a24.028 24.028 0 0 1 -24-24v-8h448z"/><path d="m216 280h24v24a8 8 0 0 0 8 8h128a8 8 0 0 0 8-8v-96a8 8 0 0 0 -8-8h-24v-24a8 8 0 0 0 -8-8h-128a8 8 0 0 0 -8 8v96a8 8 0 0 0 8 8zm40 16v-48h112v48zm112-80v16h-112v-16zm-144-32h112v16h-112zm0 32h16v48h-16z"/></svg>