<svg id="Filled" height="512" viewBox="0 0 512 512" width="512" xmlns="http://www.w3.org/2000/svg"><path d="m80 120h352a16 16 0 0 1 16 16v224a0 0 0 0 1 0 0h-384a0 0 0 0 1 0 0v-224a16 16 0 0 1 16-16z" fill="#dadcde"/><path d="m96 152h320v208h-320z" fill="#3397e8"/><path d="m24 360h464a0 0 0 0 1 0 0v16a32 32 0 0 1 -32 32h-400a32 32 0 0 1 -32-32v-16a0 0 0 0 1 0 0z" fill="#d0d2d4"/><path d="m384 104v208h-104l-16 10.67-8 5.33-8-5.33-16-10.67h-104v-208h104l16 10.67 8 5.33 8-5.33 16-10.67z" fill="#e9eef2"/><path d="m160 136h64v48h-64z" fill="#9aa3a8"/><path d="m288 200h64v48h-64z" fill="#9aa3a8"/><path d="m488 352h-32v-216a24.027 24.027 0 0 0 -24-24h-40v-8a8 8 0 0 0 -8-8h-104a8 8 0 0 0 -4.438 1.344l-19.562 13.041-19.562-13.041a8 8 0 0 0 -4.438-1.344h-104a8 8 0 0 0 -8 8v8h-40a24.027 24.027 0 0 0 -24 24v216h-32a8 8 0 0 0 -8 8v16a40.045 40.045 0 0 0 40 40h400a40.045 40.045 0 0 0 40-40v-16a8 8 0 0 0 -8-8zm-56-224a8.009 8.009 0 0 1 8 8v216h-16v-200a8 8 0 0 0 -8-8h-24v-16zm-149.578-16h93.578v192h-96a8 8 0 0 0 -4.438 1.344l-11.562 7.708v-188.771zm-146.422 0h93.578l18.422 12.281v188.771l-11.562-7.708a8 8 0 0 0 -4.438-1.344h-96zm93.578 208 21.984 14.656a8 8 0 0 0 8.876 0l21.984-14.656h101.578a8 8 0 0 0 8-8v-152h16v192h-304v-192h16v152a8 8 0 0 0 8 8zm-157.578-184a8.009 8.009 0 0 1 8-8h40v16h-24a8 8 0 0 0 -8 8v200h-16zm408 240a24.028 24.028 0 0 1 -24 24h-400a24.028 24.028 0 0 1 -24-24v-8h448z"/><path d="m304 144h48a8 8 0 0 0 0-16h-48a8 8 0 0 0 0 16z"/><path d="m160 256h64a8 8 0 0 0 0-16h-64a8 8 0 0 0 0 16z"/><path d="m224 272h-64a8 8 0 0 0 0 16h64a8 8 0 0 0 0-16z"/><path d="m224 208h-48a8 8 0 0 0 0 16h48a8 8 0 0 0 0-16z"/><path d="m288 176h16a8 8 0 0 0 0-16h-16a8 8 0 0 0 0 16z"/><path d="m352 160h-16a8 8 0 0 0 0 16h16a8 8 0 0 0 0-16z"/><path d="m288 288h64a8 8 0 0 0 0-16h-64a8 8 0 0 0 0 16z"/><path d="m160 192h64a8 8 0 0 0 8-8v-48a8 8 0 0 0 -8-8h-64a8 8 0 0 0 -8 8v48a8 8 0 0 0 8 8zm8-48h48v32h-48z"/><path d="m288 256h64a8 8 0 0 0 8-8v-48a8 8 0 0 0 -8-8h-64a8 8 0 0 0 -8 8v48a8 8 0 0 0 8 8zm8-48h48v32h-48z"/></svg>